<?xml version="1.0" encoding="UTF-8"?>
<!DOCTYPE svg PUBLIC "-//W3C//DTD SVG 1.1//EN" "http://www.w3.org/Graphics/SVG/1.1/DTD/svg11.dtd">
<svg xmlns="http://www.w3.org/2000/svg" version="1.1" width="1500px" height="700px" style="shape-rendering:geometricPrecision; text-rendering:geometricPrecision; image-rendering:optimizeQuality; fill-rule:evenodd; clip-rule:evenodd" xmlns:xlink="http://www.w3.org/1999/xlink">
<g><path style="opacity:0.964" fill="#fefffe" d="M 1320.5,230.5 C 1353.83,229.229 1376.67,243.895 1389,274.5C 1396.58,306.794 1386.41,331.627 1358.5,349C 1332.11,360.79 1307.11,358.457 1283.5,342C 1264.05,323.733 1257.55,301.566 1264,275.5C 1273.58,248.746 1292.41,233.746 1320.5,230.5 Z M 1322.5,261.5 C 1343.46,262.289 1354.79,273.122 1356.5,294C 1354.07,317.718 1341.07,327.718 1317.5,324C 1300.3,315.767 1293.8,302.267 1298,283.5C 1302.29,271.708 1310.45,264.374 1322.5,261.5 Z"/></g>
<g><path style="opacity:0.959" fill="#fefffe" d="M 866.5,231.5 C 885.169,229.335 902.836,232.501 919.5,241C 922.641,242.886 925.308,245.22 927.5,248C 922.397,256.266 916.73,264.099 910.5,271.5C 900.662,264.419 889.662,260.419 877.5,259.5C 871.654,259.247 867.654,261.747 865.5,267C 866.422,270.256 868.422,272.589 871.5,274C 881.595,277.086 891.762,279.919 902,282.5C 930.559,292.5 938.226,311.167 925,338.5C 913.332,351.009 898.832,357.009 881.5,356.5C 865.912,356.103 851.245,352.27 837.5,345C 833.044,342.374 829.044,339.207 825.5,335.5C 831.319,327.503 837.819,320.169 845,313.5C 857.803,323.434 872.303,327.934 888.5,327C 897.846,323.933 898.846,319.267 891.5,313C 879.878,309.511 868.212,306.178 856.5,303C 831.868,292.729 825.035,275.229 836,250.5C 843.78,240.199 853.946,233.865 866.5,231.5 Z"/></g>
<g><path style="opacity:0.969" fill="#fefffe" d="M 486.5,233.5 C 506.503,233.333 526.503,233.5 546.5,234C 589.759,242.275 607.259,268.109 599,311.5C 590.24,335.579 573.073,349.412 547.5,353C 527.189,354.301 506.856,354.801 486.5,354.5C 486.5,314.167 486.5,273.833 486.5,233.5 Z M 520.5,263.5 C 531.563,262.474 542.23,263.974 552.5,268C 565.751,277.864 569.584,290.697 564,306.5C 559.23,316.258 551.396,321.758 540.5,323C 533.842,323.5 527.175,323.666 520.5,323.5C 520.5,303.5 520.5,283.5 520.5,263.5 Z"/></g>
<g><path style="opacity:0.964" fill="#fefffe" d="M 668.5,233.5 C 700.833,233.5 733.167,233.5 765.5,233.5C 765.5,243.167 765.5,252.833 765.5,262.5C 744.5,262.5 723.5,262.5 702.5,262.5C 702.5,268.167 702.5,273.833 702.5,279.5C 721.833,279.5 741.167,279.5 760.5,279.5C 760.5,288.5 760.5,297.5 760.5,306.5C 741.167,306.5 721.833,306.5 702.5,306.5C 702.5,312.5 702.5,318.5 702.5,324.5C 723.833,324.5 745.167,324.5 766.5,324.5C 766.5,334.5 766.5,344.5 766.5,354.5C 733.833,354.5 701.167,354.5 668.5,354.5C 668.5,314.167 668.5,273.833 668.5,233.5 Z"/></g>
<g><path style="opacity:0.952" fill="#fefffe" d="M 986.5,233.5 C 1022.17,233.5 1057.83,233.5 1093.5,233.5C 1093.5,243.5 1093.5,253.5 1093.5,263.5C 1081.5,263.5 1069.5,263.5 1057.5,263.5C 1057.5,293.833 1057.5,324.167 1057.5,354.5C 1045.83,354.5 1034.17,354.5 1022.5,354.5C 1022.5,324.167 1022.5,293.833 1022.5,263.5C 1010.5,263.5 998.5,263.5 986.5,263.5C 986.5,253.5 986.5,243.5 986.5,233.5 Z"/></g>
<g><path style="opacity:0.975" fill="#fefffe" d="M 1158.5,233.5 C 1169.83,233.5 1181.17,233.5 1192.5,233.5C 1192.5,273.833 1192.5,314.167 1192.5,354.5C 1181.17,354.5 1169.83,354.5 1158.5,354.5C 1158.5,314.167 1158.5,273.833 1158.5,233.5 Z"/></g>
<g><path style="opacity:0.931" fill="#5694e4" d="M 166.5,242.5 C 169.227,249.62 172.227,256.62 175.5,263.5C 174.833,263.5 174.167,263.5 173.5,263.5C 171.201,257.244 168.534,251.244 165.5,245.5C 165.263,244.209 165.596,243.209 166.5,242.5 Z"/></g>
<g><path style="opacity:0.952" fill="#5397e4" d="M 166.5,242.5 C 168.167,242.5 169.833,242.5 171.5,242.5C 174.024,249.695 177.024,256.695 180.5,263.5C 178.833,263.5 177.167,263.5 175.5,263.5C 172.227,256.62 169.227,249.62 166.5,242.5 Z"/></g>
<g><path style="opacity:0.957" fill="#509be3" d="M 171.5,242.5 C 172.5,242.5 173.5,242.5 174.5,242.5C 177.294,249.537 180.294,256.537 183.5,263.5C 182.5,263.5 181.5,263.5 180.5,263.5C 177.024,256.695 174.024,249.695 171.5,242.5 Z"/></g>
<g><path style="opacity:0.952" fill="#4c9ee2" d="M 174.5,242.5 C 176.167,242.5 177.833,242.5 179.5,242.5C 181.925,249.785 184.925,256.785 188.5,263.5C 186.833,263.5 185.167,263.5 183.5,263.5C 180.294,256.537 177.294,249.537 174.5,242.5 Z"/></g>
<g><path style="opacity:0.968" fill="#49a1e2" d="M 179.5,242.5 C 180.167,242.5 180.833,242.5 181.5,242.5C 184.779,249.39 187.779,256.39 190.5,263.5C 189.833,263.5 189.167,263.5 188.5,263.5C 184.925,256.785 181.925,249.785 179.5,242.5 Z"/></g>
<g><path style="opacity:0.949" fill="#46a4e1" d="M 181.5,242.5 C 182.833,242.5 184.167,242.5 185.5,242.5C 188.544,249.591 191.878,256.591 195.5,263.5C 193.833,263.5 192.167,263.5 190.5,263.5C 187.779,256.39 184.779,249.39 181.5,242.5 Z"/></g>
<g><path style="opacity:0.958" fill="#43a7e1" d="M 185.5,242.5 C 186.833,242.5 188.167,242.5 189.5,242.5C 192.048,249.687 195.048,256.687 198.5,263.5C 197.5,263.5 196.5,263.5 195.5,263.5C 191.878,256.591 188.544,249.591 185.5,242.5 Z"/></g>
<g><path style="opacity:0.955" fill="#40aae1" d="M 189.5,242.5 C 190.833,242.5 192.167,242.5 193.5,242.5C 193.371,245.983 195.038,248.817 198.5,251C 198.043,251.414 197.709,251.914 197.5,252.5C 198.907,256.312 200.574,259.978 202.5,263.5C 201.167,263.5 199.833,263.5 198.5,263.5C 195.048,256.687 192.048,249.687 189.5,242.5 Z"/></g>
<g><path style="opacity:0.982" fill="#3cade0" d="M 193.5,242.5 C 194.833,242.5 196.167,242.5 197.5,242.5C 200.167,249.501 202.834,256.501 205.5,263.5C 204.5,263.5 203.5,263.5 202.5,263.5C 200.574,259.978 198.907,256.312 197.5,252.5C 197.709,251.914 198.043,251.414 198.5,251C 195.038,248.817 193.371,245.983 193.5,242.5 Z"/></g>
<g><path style="opacity:0.956" fill="#39afdf" d="M 197.5,242.5 C 198.5,242.5 199.5,242.5 200.5,242.5C 203.703,249.452 206.703,256.452 209.5,263.5C 208.167,263.5 206.833,263.5 205.5,263.5C 202.834,256.501 200.167,249.501 197.5,242.5 Z"/></g>
<g><path style="opacity:0.959" fill="#36b3df" d="M 200.5,242.5 C 202.833,242.5 205.167,242.5 207.5,242.5C 209.392,249.85 212.059,256.85 215.5,263.5C 213.5,263.5 211.5,263.5 209.5,263.5C 206.703,256.452 203.703,249.452 200.5,242.5 Z"/></g>
<g><path style="opacity:0.966" fill="#32b6de" d="M 207.5,242.5 C 208.167,242.5 208.833,242.5 209.5,242.5C 212.702,249.447 215.702,256.447 218.5,263.5C 217.5,263.5 216.5,263.5 215.5,263.5C 212.059,256.85 209.392,249.85 207.5,242.5 Z"/></g>
<g><path style="opacity:0.961" fill="#2fb9de" d="M 209.5,242.5 C 211.5,242.5 213.5,242.5 215.5,242.5C 218.227,249.62 221.227,256.62 224.5,263.5C 222.5,263.5 220.5,263.5 218.5,263.5C 215.702,256.447 212.702,249.447 209.5,242.5 Z"/></g>
<g><path style="opacity:0.97" fill="#2cbcdd" d="M 215.5,242.5 C 216.167,242.5 216.833,242.5 217.5,242.5C 220.296,249.545 223.296,256.545 226.5,263.5C 225.833,263.5 225.167,263.5 224.5,263.5C 221.227,256.62 218.227,249.62 215.5,242.5 Z"/></g>
<g><path style="opacity:0.965" fill="#29bfdd" d="M 217.5,242.5 C 219.833,242.5 222.167,242.5 224.5,242.5C 227.695,249.418 230.695,256.418 233.5,263.5C 231.167,263.5 228.833,263.5 226.5,263.5C 223.296,256.545 220.296,249.545 217.5,242.5 Z"/></g>
<g><path style="opacity:0.971" fill="#26c2dc" d="M 224.5,242.5 C 225.167,242.5 225.833,242.5 226.5,242.5C 229.945,249.236 232.945,256.236 235.5,263.5C 234.833,263.5 234.167,263.5 233.5,263.5C 230.695,256.418 227.695,249.418 224.5,242.5 Z"/></g>
<g><path style="opacity:0.937" fill="#22c5dc" d="M 226.5,242.5 C 229.833,242.5 233.167,242.5 236.5,242.5C 237.038,244.117 237.371,245.784 237.5,247.5C 238.834,253.222 241.167,258.889 244.5,264.5C 241.43,264.632 238.43,264.299 235.5,263.5C 232.945,256.236 229.945,249.236 226.5,242.5 Z"/></g>
<g><path style="opacity:0.944" fill="#1ccbdb" d="M 236.5,242.5 C 240.215,242.423 243.881,242.756 247.5,243.5C 247.389,244.117 247.056,244.617 246.5,245C 248.972,246.601 249.972,248.601 249.5,251C 251.109,253.754 252.442,256.587 253.5,259.5C 252.448,259.351 251.448,259.517 250.5,260C 255.41,258.605 257.077,260.439 255.5,265.5C 252.214,264.793 248.881,264.46 245.5,264.5C 243.07,258.643 240.403,252.977 237.5,247.5C 237.371,245.784 237.038,244.117 236.5,242.5 Z"/></g>
<g><path style="opacity:0.946" fill="#15d1d9" d="M 249.5,243.5 C 253.842,243.739 258.176,244.073 262.5,244.5C 262.389,245.117 262.056,245.617 261.5,246C 264.61,251.03 267.444,256.197 270,261.5C 270.662,263.813 271.162,266.146 271.5,268.5C 267.196,267.372 262.862,266.372 258.5,265.5C 255.34,257.899 252.34,250.566 249.5,243.5 Z"/></g>
<g><path style="opacity:0.952" fill="#10d6d9" d="M 262.5,244.5 C 298.761,251.929 326.261,271.596 345,303.5C 363.482,337.501 366.482,372.835 354,409.5C 350.997,416.84 347.497,423.84 343.5,430.5C 339.432,422.609 335.765,414.942 332.5,407.5C 349.095,360.048 339.095,319.215 302.5,285C 293.319,277.409 282.986,271.909 271.5,268.5C 271.162,266.146 270.662,263.813 270,261.5C 267.444,256.197 264.61,251.03 261.5,246C 262.056,245.617 262.389,245.117 262.5,244.5 Z"/></g>
<g><path style="opacity:0.864" fill="#5992e5" d="M 165.5,245.5 C 168.534,251.244 171.201,257.244 173.5,263.5C 171.5,263.5 169.5,263.5 167.5,263.5C 167.771,261.62 167.104,260.287 165.5,259.5C 165.5,254.833 165.5,250.167 165.5,245.5 Z"/></g>
<g><path style="opacity:0.973" fill="#20c8db" d="M 237.5,247.5 C 240.403,252.977 243.07,258.643 245.5,264.5C 245.167,264.5 244.833,264.5 244.5,264.5C 241.167,258.889 238.834,253.222 237.5,247.5 Z"/></g>
<g><path style="opacity:1" fill="#19ceda" d="M 247.5,243.5 C 248.167,243.5 248.833,243.5 249.5,243.5C 252.34,250.566 255.34,257.899 258.5,265.5C 257.5,265.5 256.5,265.5 255.5,265.5C 257.077,260.439 255.41,258.605 250.5,260C 251.448,259.517 252.448,259.351 253.5,259.5C 252.442,256.587 251.109,253.754 249.5,251C 249.972,248.601 248.972,246.601 246.5,245C 247.056,244.617 247.389,244.117 247.5,243.5 Z"/></g>
<g><path style="opacity:0.699" fill="#5d8ee6" d="M 165.5,259.5 C 167.104,260.287 167.771,261.62 167.5,263.5C 165.824,262.817 165.157,261.483 165.5,259.5 Z"/></g>
<g><path style="opacity:0.954" fill="#d122f8" d="M 55.5,303.5 C 58.1667,303.5 60.8333,303.5 63.5,303.5C 65.7836,310.69 68.4503,317.69 71.5,324.5C 68.8333,324.5 66.1667,324.5 63.5,324.5C 63.6107,323.883 63.944,323.383 64.5,323C 61.8855,318.989 59.5522,314.822 57.5,310.5C 57.7093,309.914 58.0426,309.414 58.5,309C 56.84,307.512 55.84,305.679 55.5,303.5 Z"/></g>
<g><path style="opacity:0.958" fill="#cb28f7" d="M 63.5,303.5 C 66.1667,303.5 68.8333,303.5 71.5,303.5C 73.9078,310.64 76.5745,317.64 79.5,324.5C 76.8333,324.5 74.1667,324.5 71.5,324.5C 68.4503,317.69 65.7836,310.69 63.5,303.5 Z"/></g>
<g><path style="opacity:0.956" fill="#c42ef6" d="M 71.5,303.5 C 73.8333,303.5 76.1667,303.5 78.5,303.5C 81.6765,310.343 84.6765,317.343 87.5,324.5C 84.8333,324.5 82.1667,324.5 79.5,324.5C 76.5745,317.64 73.9078,310.64 71.5,303.5 Z"/></g>
<g><path style="opacity:0.956" fill="#be34f5" d="M 78.5,303.5 C 80.8333,303.5 83.1667,303.5 85.5,303.5C 88.8532,310.559 91.8532,317.559 94.5,324.5C 92.1667,324.5 89.8333,324.5 87.5,324.5C 84.6765,317.343 81.6765,310.343 78.5,303.5 Z"/></g>
<g><path style="opacity:0.957" fill="#ba37f5" d="M 85.5,303.5 C 86.1667,303.5 86.8333,303.5 87.5,303.5C 90.0511,310.723 93.0511,317.723 96.5,324.5C 95.8333,324.5 95.1667,324.5 94.5,324.5C 91.8532,317.559 88.8532,310.559 85.5,303.5 Z"/></g>
<g><path style="opacity:0.957" fill="#b73af4" d="M 87.5,303.5 C 89.1667,303.5 90.8333,303.5 92.5,303.5C 95.2271,310.62 98.2271,317.62 101.5,324.5C 99.8333,324.5 98.1667,324.5 96.5,324.5C 93.0511,317.723 90.0511,310.723 87.5,303.5 Z"/></g>
<g><path style="opacity:0.967" fill="#b43df4" d="M 92.5,303.5 C 93.1667,303.5 93.8333,303.5 94.5,303.5C 95.7542,307.683 97.7542,311.349 100.5,314.5C 100.924,318.012 101.924,321.345 103.5,324.5C 102.833,324.5 102.167,324.5 101.5,324.5C 98.2271,317.62 95.2271,310.62 92.5,303.5 Z"/></g>
<g><path style="opacity:0.948" fill="#b140f3" d="M 94.5,303.5 C 96.1667,303.5 97.8333,303.5 99.5,303.5C 100.752,305.339 100.752,307.172 99.5,309C 101.428,310.681 101.761,312.514 100.5,314.5C 97.7542,311.349 95.7542,307.683 94.5,303.5 Z"/></g>
<g><path style="opacity:0.958" fill="#aa46f2" d="M 101.5,303.5 C 103.167,303.5 104.833,303.5 106.5,303.5C 107.569,308.089 109.569,312.089 112.5,315.5C 113.216,318.598 114.216,321.598 115.5,324.5C 113.833,324.5 112.167,324.5 110.5,324.5C 107.322,317.651 104.322,310.651 101.5,303.5 Z"/></g>
<g><path style="opacity:0.952" fill="#a749f2" d="M 106.5,303.5 C 107.167,303.5 107.833,303.5 108.5,303.5C 110.407,307.313 111.74,311.313 112.5,315.5C 109.569,312.089 107.569,308.089 106.5,303.5 Z"/></g>
<g><path style="opacity:0.961" fill="#a44cf1" d="M 108.5,303.5 C 109.833,303.5 111.167,303.5 112.5,303.5C 115.694,310.413 118.694,317.413 121.5,324.5C 120.167,324.5 118.833,324.5 117.5,324.5C 116.59,321.008 114.924,318.008 112.5,315.5C 111.74,311.313 110.407,307.313 108.5,303.5 Z"/></g>
<g><path style="opacity:0.956" fill="#a04ff0" d="M 112.5,303.5 C 113.833,303.5 115.167,303.5 116.5,303.5C 119.305,310.582 122.305,317.582 125.5,324.5C 124.167,324.5 122.833,324.5 121.5,324.5C 118.694,317.413 115.694,310.413 112.5,303.5 Z"/></g>
<g><path style="opacity:0.959" fill="#9d52f0" d="M 116.5,303.5 C 117.5,303.5 118.5,303.5 119.5,303.5C 122.451,310.4 125.118,317.4 127.5,324.5C 126.833,324.5 126.167,324.5 125.5,324.5C 122.305,317.582 119.305,310.582 116.5,303.5 Z"/></g>
<g><path style="opacity:0.955" fill="#9a55ef" d="M 119.5,303.5 C 120.833,303.5 122.167,303.5 123.5,303.5C 126.047,310.679 129.047,317.679 132.5,324.5C 130.833,324.5 129.167,324.5 127.5,324.5C 125.118,317.4 122.451,310.4 119.5,303.5 Z"/></g>
<g><path style="opacity:0.96" fill="#9758ef" d="M 123.5,303.5 C 124.5,303.5 125.5,303.5 126.5,303.5C 129.408,310.934 132.408,317.934 135.5,324.5C 134.5,324.5 133.5,324.5 132.5,324.5C 129.047,317.679 126.047,310.679 123.5,303.5 Z"/></g>
<g><path style="opacity:0.954" fill="#935bee" d="M 126.5,303.5 C 127.833,303.5 129.167,303.5 130.5,303.5C 132.906,310.705 135.906,317.705 139.5,324.5C 138.167,324.5 136.833,324.5 135.5,324.5C 132.408,317.934 129.408,310.934 126.5,303.5 Z"/></g>
<g><path style="opacity:0.968" fill="#905eee" d="M 130.5,303.5 C 131.167,303.5 131.833,303.5 132.5,303.5C 135.773,310.38 138.773,317.38 141.5,324.5C 140.833,324.5 140.167,324.5 139.5,324.5C 135.906,317.705 132.906,310.705 130.5,303.5 Z"/></g>
<g><path style="opacity:0.959" fill="#8668ec" d="M 139.5,303.5 C 141.167,303.5 142.833,303.5 144.5,303.5C 147.043,310.638 150.043,317.638 153.5,324.5C 151.5,324.5 149.5,324.5 147.5,324.5C 144.82,317.455 142.154,310.455 139.5,303.5 Z"/></g>
<g><path style="opacity:0.953" fill="#816deb" d="M 144.5,303.5 C 146.833,303.5 149.167,303.5 151.5,303.5C 151.707,306.241 152.707,308.574 154.5,310.5C 156.16,315.156 157.826,319.823 159.5,324.5C 157.5,324.5 155.5,324.5 153.5,324.5C 150.043,317.638 147.043,310.638 144.5,303.5 Z"/></g>
<g><path style="opacity:0.936" fill="#7d71eb" d="M 151.5,303.5 C 151.833,303.5 152.167,303.5 152.5,303.5C 153.455,305.746 154.122,308.079 154.5,310.5C 152.707,308.574 151.707,306.241 151.5,303.5 Z"/></g>
<g><path style="opacity:0.959" fill="#7974ea" d="M 152.5,303.5 C 154.5,303.5 156.5,303.5 158.5,303.5C 160.924,310.78 163.924,317.78 167.5,324.5C 165.167,324.5 162.833,324.5 160.5,324.5C 159.458,319.358 157.458,314.691 154.5,310.5C 154.122,308.079 153.455,305.746 152.5,303.5 Z"/></g>
<g><path style="opacity:0.961" fill="#7379e9" d="M 158.5,303.5 C 160.5,303.5 162.5,303.5 164.5,303.5C 167.18,310.545 169.846,317.545 172.5,324.5C 170.833,324.5 169.167,324.5 167.5,324.5C 163.924,317.78 160.924,310.78 158.5,303.5 Z"/></g>
<g><path style="opacity:0.957" fill="#6d7fe8" d="M 164.5,303.5 C 166.833,303.5 169.167,303.5 171.5,303.5C 171.461,306.089 172.461,308.089 174.5,309.5C 174.5,309.833 174.5,310.167 174.5,310.5C 176.24,315.119 177.907,319.786 179.5,324.5C 177.167,324.5 174.833,324.5 172.5,324.5C 169.846,317.545 167.18,310.545 164.5,303.5 Z"/></g>
<g><path style="opacity:0.923" fill="#6883e8" d="M 171.5,303.5 C 172.167,303.5 172.833,303.5 173.5,303.5C 173.953,304.458 174.619,305.292 175.5,306C 174.663,307.011 174.33,308.178 174.5,309.5C 172.461,308.089 171.461,306.089 171.5,303.5 Z"/></g>
<g><path style="opacity:0.961" fill="#6587e6" d="M 173.5,303.5 C 175.167,303.5 176.833,303.5 178.5,303.5C 182.083,310.249 185.083,317.249 187.5,324.5C 186.167,324.5 184.833,324.5 183.5,324.5C 182.602,323.842 181.602,323.176 180.5,322.5C 181.167,322.167 181.833,321.833 182.5,321.5C 180.379,319.979 178.879,317.979 178,315.5C 177.759,312.711 177.092,310.044 176,307.5C 175.768,308.737 175.268,309.737 174.5,310.5C 174.5,310.167 174.5,309.833 174.5,309.5C 174.33,308.178 174.663,307.011 175.5,306C 174.619,305.292 173.953,304.458 173.5,303.5 Z"/></g>
<g><path style="opacity:0.959" fill="#5f8ce6" d="M 178.5,303.5 C 180.833,303.5 183.167,303.5 185.5,303.5C 189.086,310.26 192.086,317.26 194.5,324.5C 192.167,324.5 189.833,324.5 187.5,324.5C 185.083,317.249 182.083,310.249 178.5,303.5 Z"/></g>
<g><path style="opacity:0.953" fill="#5991e5" d="M 185.5,303.5 C 187.5,303.5 189.5,303.5 191.5,303.5C 193.4,309.629 196.067,315.296 199.5,320.5C 200.674,321.514 201.34,322.847 201.5,324.5C 199.167,324.5 196.833,324.5 194.5,324.5C 192.086,317.26 189.086,310.26 185.5,303.5 Z"/></g>
<g><path style="opacity:0.955" fill="#5694e4" d="M 191.5,303.5 C 192.167,303.5 192.833,303.5 193.5,303.5C 195.786,309.07 197.786,314.737 199.5,320.5C 196.067,315.296 193.4,309.629 191.5,303.5 Z"/></g>
<g><path style="opacity:0.95" fill="#5397e4" d="M 193.5,303.5 C 195.167,303.5 196.833,303.5 198.5,303.5C 201.154,310.455 203.82,317.455 206.5,324.5C 204.833,324.5 203.167,324.5 201.5,324.5C 201.34,322.847 200.674,321.514 199.5,320.5C 197.786,314.737 195.786,309.07 193.5,303.5 Z"/></g>
<g><path style="opacity:0.952" fill="#509be3" d="M 198.5,303.5 C 199.5,303.5 200.5,303.5 201.5,303.5C 204.167,310.5 206.833,317.5 209.5,324.5C 208.5,324.5 207.5,324.5 206.5,324.5C 203.82,317.455 201.154,310.455 198.5,303.5 Z"/></g>
<g><path style="opacity:0.952" fill="#4c9ee3" d="M 201.5,303.5 C 202.833,303.5 204.167,303.5 205.5,303.5C 208.703,310.452 211.703,317.452 214.5,324.5C 212.833,324.5 211.167,324.5 209.5,324.5C 206.833,317.5 204.167,310.5 201.5,303.5 Z"/></g>
<g><path style="opacity:0.963" fill="#49a1e2" d="M 205.5,303.5 C 206.5,303.5 207.5,303.5 208.5,303.5C 210.684,309.209 213.35,314.709 216.5,320C 216.034,321.299 216.034,322.799 216.5,324.5C 215.833,324.5 215.167,324.5 214.5,324.5C 211.703,317.452 208.703,310.452 205.5,303.5 Z"/></g>
<g><path style="opacity:0.957" fill="#46a4e1" d="M 208.5,303.5 C 210.167,303.5 211.833,303.5 213.5,303.5C 215.892,310.615 218.558,317.615 221.5,324.5C 219.833,324.5 218.167,324.5 216.5,324.5C 216.034,322.799 216.034,321.299 216.5,320C 213.35,314.709 210.684,309.209 208.5,303.5 Z"/></g>
<g><path style="opacity:0.966" fill="#43a7e1" d="M 213.5,303.5 C 214.5,303.5 215.5,303.5 216.5,303.5C 219.16,310.478 221.827,317.478 224.5,324.5C 223.5,324.5 222.5,324.5 221.5,324.5C 218.558,317.615 215.892,310.615 213.5,303.5 Z"/></g>
<g><path style="opacity:0.961" fill="#3faae0" d="M 216.5,303.5 C 217.833,303.5 219.167,303.5 220.5,303.5C 222.82,310.307 225.82,316.807 229.5,323C 228.944,323.383 228.611,323.883 228.5,324.5C 227.167,324.5 225.833,324.5 224.5,324.5C 221.827,317.478 219.16,310.478 216.5,303.5 Z"/></g>
<g><path style="opacity:0.959" fill="#3cade0" d="M 220.5,303.5 C 221.5,303.5 222.5,303.5 223.5,303.5C 227.086,310.261 230.086,317.261 232.5,324.5C 231.167,324.5 229.833,324.5 228.5,324.5C 228.611,323.883 228.944,323.383 229.5,323C 225.82,316.807 222.82,310.307 220.5,303.5 Z"/></g>
<g><path style="opacity:0.948" fill="#39afdf" d="M 223.5,303.5 C 224.833,303.5 226.167,303.5 227.5,303.5C 230.295,310.542 233.295,317.542 236.5,324.5C 235.167,324.5 233.833,324.5 232.5,324.5C 230.086,317.261 227.086,310.261 223.5,303.5 Z"/></g>
<g><path style="opacity:0.96" fill="#36b3df" d="M 227.5,303.5 C 229.5,303.5 231.5,303.5 233.5,303.5C 236.227,310.62 239.227,317.62 242.5,324.5C 240.5,324.5 238.5,324.5 236.5,324.5C 233.295,317.542 230.295,310.542 227.5,303.5 Z"/></g>
<g><path style="opacity:0.945" fill="#32b6de" d="M 233.5,303.5 C 234.5,303.5 235.5,303.5 236.5,303.5C 239.118,311.028 242.118,318.361 245.5,325.5C 244.391,325.443 243.391,325.11 242.5,324.5C 239.227,317.62 236.227,310.62 233.5,303.5 Z"/></g>
<g><path style="opacity:0.957" fill="#2fb9de" d="M 236.5,303.5 C 238.167,303.5 239.833,303.5 241.5,303.5C 245.124,311.611 248.79,319.277 252.5,326.5C 250.194,326.007 247.861,325.674 245.5,325.5C 242.118,318.361 239.118,311.028 236.5,303.5 Z"/></g>
<g><path style="opacity:0.941" fill="#2cbcdd" d="M 241.5,303.5 C 242.5,303.5 243.5,303.5 244.5,303.5C 248.119,311.774 251.452,319.774 254.5,327.5C 253.508,327.672 252.842,327.338 252.5,326.5C 248.79,319.277 245.124,311.611 241.5,303.5 Z"/></g>
<g><path style="opacity:0.934" fill="#29bfdd" d="M 244.5,303.5 C 247.373,303.802 250.039,304.469 252.5,305.5C 256.185,314.748 260.185,324.081 264.5,333.5C 261.159,331.497 257.825,329.497 254.5,327.5C 251.452,319.774 248.119,311.774 244.5,303.5 Z"/></g>
<g><path style="opacity:1" fill="#8d61ed" d="M 132.5,303.5 C 133.833,303.5 135.167,303.5 136.5,303.5C 135.068,305.799 135.734,307.465 138.5,308.5C 140.816,313.824 143.149,319.157 145.5,324.5C 144.167,324.5 142.833,324.5 141.5,324.5C 138.773,317.38 135.773,310.38 132.5,303.5 Z"/></g>
<g><path style="opacity:0.972" fill="#d71df9" d="M 55.5,303.5 C 55.84,305.679 56.84,307.512 58.5,309C 58.0426,309.414 57.7093,309.914 57.5,310.5C 59.5522,314.822 61.8855,318.989 64.5,323C 63.944,323.383 63.6107,323.883 63.5,324.5C 60.1667,324.5 56.8333,324.5 53.5,324.5C 52.8721,317.087 53.5388,310.087 55.5,303.5 Z"/></g>
<g><path style="opacity:0.974" fill="#26c2dc" d="M 252.5,305.5 C 253.167,305.5 253.833,305.5 254.5,305.5C 258.476,315.46 262.476,325.46 266.5,335.5C 265.5,335.167 264.833,334.5 264.5,333.5C 260.185,324.081 256.185,314.748 252.5,305.5 Z"/></g>
<g><path style="opacity:0.958" fill="#22c5dc" d="M 254.5,305.5 C 258.901,306.406 262.901,308.072 266.5,310.5C 265.833,310.5 265.5,310.833 265.5,311.5C 267.479,319.787 270.812,327.454 275.5,334.5C 276.338,334.842 276.672,335.508 276.5,336.5C 279.45,345.731 282.95,354.731 287,363.5C 287.697,365.584 288.864,367.251 290.5,368.5C 290.229,370.38 290.896,371.713 292.5,372.5C 292.488,376.45 293.821,379.784 296.5,382.5C 297.338,382.842 297.672,383.508 297.5,384.5C 297.128,388.297 295.794,391.63 293.5,394.5C 291.488,390.758 289.488,387.091 287.5,383.5C 285.594,376.764 282.927,370.431 279.5,364.5C 278.674,353.188 274.341,343.521 266.5,335.5C 262.476,325.46 258.476,315.46 254.5,305.5 Z"/></g>
<g><path style="opacity:1" fill="#af42f2" d="M 99.5,303.5 C 100.167,303.5 100.833,303.5 101.5,303.5C 104.322,310.651 107.322,317.651 110.5,324.5C 108.5,324.5 106.5,324.5 104.5,324.5C 104.721,323.265 105.388,322.265 106.5,321.5C 105.109,321.891 104.109,321.058 103.5,319C 104.167,318.667 104.833,318.333 105.5,318C 103.721,316.86 102.054,315.693 100.5,314.5C 101.761,312.514 101.428,310.681 99.5,309C 100.752,307.172 100.752,305.339 99.5,303.5 Z"/></g>
<g><path style="opacity:1" fill="#6883e8" d="M 183.5,324.5 C 182.167,324.5 180.833,324.5 179.5,324.5C 177.907,319.786 176.24,315.119 174.5,310.5C 175.268,309.737 175.768,308.737 176,307.5C 177.092,310.044 177.759,312.711 178,315.5C 178.879,317.979 180.379,319.979 182.5,321.5C 181.833,321.833 181.167,322.167 180.5,322.5C 181.602,323.176 182.602,323.842 183.5,324.5 Z"/></g>
<g><path style="opacity:0.984" fill="#7d71eb" d="M 154.5,310.5 C 157.458,314.691 159.458,319.358 160.5,324.5C 160.167,324.5 159.833,324.5 159.5,324.5C 157.826,319.823 156.16,315.156 154.5,310.5 Z"/></g>
<g><path style="opacity:0.974" fill="#1ccadb" d="M 265.5,311.5 C 265.5,310.833 265.833,310.5 266.5,310.5C 272.687,313.353 278.021,317.353 282.5,322.5C 281.803,324.071 281.47,325.571 281.5,327C 282.623,328.044 283.956,328.71 285.5,329C 282.507,329.427 282.007,330.594 284,332.5C 285.544,329.736 286.711,329.903 287.5,333C 283.81,333.424 283.643,334.258 287,335.5C 287.359,338.544 288.026,338.878 289,336.5C 290.167,339.667 291.333,342.833 292.5,346C 291.216,347.297 291.383,348.464 293,349.5C 293.333,349.167 293.667,348.833 294,348.5C 296.581,351.207 296.748,353.874 294.5,356.5C 296.27,357.82 296.603,359.32 295.5,361C 297.751,362.412 299.418,364.246 300.5,366.5C 300.762,372.835 299.762,378.835 297.5,384.5C 297.672,383.508 297.338,382.842 296.5,382.5C 296.118,378.668 294.785,375.335 292.5,372.5C 290.896,371.713 290.229,370.38 290.5,368.5C 289.307,364.089 287.807,359.756 286,355.5C 282.347,349.352 279.181,343.019 276.5,336.5C 276.672,335.508 276.338,334.842 275.5,334.5C 275.703,332.61 275.037,331.11 273.5,330C 273.833,329.667 274.167,329.333 274.5,329C 271.389,323.124 268.389,317.291 265.5,311.5 Z"/></g>
<g><path style="opacity:1" fill="#20c8db" d="M 265.5,311.5 C 268.389,317.291 271.389,323.124 274.5,329C 274.167,329.333 273.833,329.667 273.5,330C 275.037,331.11 275.703,332.61 275.5,334.5C 270.812,327.454 267.479,319.787 265.5,311.5 Z"/></g>
<g><path style="opacity:0.976" fill="#8a64ed" d="M 136.5,303.5 C 137.5,303.5 138.5,303.5 139.5,303.5C 142.154,310.455 144.82,317.455 147.5,324.5C 146.833,324.5 146.167,324.5 145.5,324.5C 143.149,319.157 140.816,313.824 138.5,308.5C 135.734,307.465 135.068,305.799 136.5,303.5 Z"/></g>
<g><path style="opacity:0.989" fill="#b140f3" d="M 100.5,314.5 C 102.054,315.693 103.721,316.86 105.5,318C 104.833,318.333 104.167,318.667 103.5,319C 104.109,321.058 105.109,321.891 106.5,321.5C 105.388,322.265 104.721,323.265 104.5,324.5C 104.167,324.5 103.833,324.5 103.5,324.5C 101.924,321.345 100.924,318.012 100.5,314.5 Z"/></g>
<g><path style="opacity:0.966" fill="#a749f2" d="M 112.5,315.5 C 114.924,318.008 116.59,321.008 117.5,324.5C 116.833,324.5 116.167,324.5 115.5,324.5C 114.216,321.598 113.216,318.598 112.5,315.5 Z"/></g>
<g><path style="opacity:0.826" fill="#18ceda" d="M 282.5,322.5 C 294.529,334.575 300.529,349.242 300.5,366.5C 299.418,364.246 297.751,362.412 295.5,361C 296.603,359.32 296.27,357.82 294.5,356.5C 296.748,353.874 296.581,351.207 294,348.5C 293.667,348.833 293.333,349.167 293,349.5C 291.383,348.464 291.216,347.297 292.5,346C 291.333,342.833 290.167,339.667 289,336.5C 288.026,338.878 287.359,338.544 287,335.5C 283.643,334.258 283.81,333.424 287.5,333C 286.711,329.903 285.544,329.736 284,332.5C 282.007,330.594 282.507,329.427 285.5,329C 283.956,328.71 282.623,328.044 281.5,327C 281.47,325.571 281.803,324.071 282.5,322.5 Z"/></g>
<g><path style="opacity:1" fill="#20c8db" d="M 276.5,336.5 C 279.181,343.019 282.347,349.352 286,355.5C 287.807,359.756 289.307,364.089 290.5,368.5C 288.864,367.251 287.697,365.584 287,363.5C 282.95,354.731 279.45,345.731 276.5,336.5 Z"/></g>
<g><path style="opacity:0.957" fill="#b43df4" d="M 117.5,355.5 C 120.32,362.449 122.986,369.449 125.5,376.5C 124.833,376.5 124.167,376.5 123.5,376.5C 121.401,370.185 118.734,364.185 115.5,358.5C 115.285,356.821 115.952,355.821 117.5,355.5 Z"/></g>
<g><path style="opacity:0.97" fill="#b23ff3" d="M 117.5,355.5 C 118.167,355.5 118.833,355.5 119.5,355.5C 120.59,357.437 121.924,359.27 123.5,361C 121.099,361.805 121.266,362.638 124,363.5C 126.143,367.947 127.643,372.28 128.5,376.5C 127.5,376.5 126.5,376.5 125.5,376.5C 122.986,369.449 120.32,362.449 117.5,355.5 Z"/></g>
<g><path style="opacity:0.93" fill="#af42f3" d="M 119.5,355.5 C 121.167,355.5 122.833,355.5 124.5,355.5C 127.288,362.563 129.955,369.563 132.5,376.5C 131.167,376.5 129.833,376.5 128.5,376.5C 127.643,372.28 126.143,367.947 124,363.5C 121.266,362.638 121.099,361.805 123.5,361C 121.924,359.27 120.59,357.437 119.5,355.5 Z"/></g>
<g><path style="opacity:0.96" fill="#aa46f2" d="M 124.5,355.5 C 126.167,355.5 127.833,355.5 129.5,355.5C 132.647,362.402 135.647,369.402 138.5,376.5C 136.5,376.5 134.5,376.5 132.5,376.5C 129.955,369.563 127.288,362.563 124.5,355.5 Z"/></g>
<g><path style="opacity:0.964" fill="#a749f1" d="M 129.5,355.5 C 130.167,355.5 130.833,355.5 131.5,355.5C 134.432,362.976 137.432,369.976 140.5,376.5C 139.833,376.5 139.167,376.5 138.5,376.5C 135.647,369.402 132.647,362.402 129.5,355.5 Z"/></g>
<g><path style="opacity:0.964" fill="#a44cf1" d="M 131.5,355.5 C 132.833,355.5 134.167,355.5 135.5,355.5C 138.686,362.384 141.686,369.384 144.5,376.5C 143.167,376.5 141.833,376.5 140.5,376.5C 137.432,369.976 134.432,362.976 131.5,355.5 Z"/></g>
<g><path style="opacity:0.959" fill="#a04ff0" d="M 135.5,355.5 C 136.833,355.5 138.167,355.5 139.5,355.5C 142.227,362.62 145.227,369.62 148.5,376.5C 147.167,376.5 145.833,376.5 144.5,376.5C 141.686,369.384 138.686,362.384 135.5,355.5 Z"/></g>
<g><path style="opacity:0.959" fill="#9d52f0" d="M 139.5,355.5 C 140.5,355.5 141.5,355.5 142.5,355.5C 144.882,362.6 147.549,369.6 150.5,376.5C 149.833,376.5 149.167,376.5 148.5,376.5C 145.227,369.62 142.227,362.62 139.5,355.5 Z"/></g>
<g><path style="opacity:0.963" fill="#9a55ef" d="M 142.5,355.5 C 143.833,355.5 145.167,355.5 146.5,355.5C 149.077,362.91 151.744,369.91 154.5,376.5C 153.167,376.5 151.833,376.5 150.5,376.5C 147.549,369.6 144.882,362.6 142.5,355.5 Z"/></g>
<g><path style="opacity:0.963" fill="#9758ef" d="M 146.5,355.5 C 147.5,355.5 148.5,355.5 149.5,355.5C 152.426,362.36 155.093,369.36 157.5,376.5C 156.5,376.5 155.5,376.5 154.5,376.5C 151.744,369.91 149.077,362.91 146.5,355.5 Z"/></g>
<g><path style="opacity:0.967" fill="#935bee" d="M 149.5,355.5 C 150.5,355.5 151.5,355.5 152.5,355.5C 155.713,362.493 158.713,369.493 161.5,376.5C 160.167,376.5 158.833,376.5 157.5,376.5C 155.093,369.36 152.426,362.36 149.5,355.5 Z"/></g>
<g><path style="opacity:0.954" fill="#905eee" d="M 152.5,355.5 C 153.5,355.5 154.5,355.5 155.5,355.5C 158.21,362.59 161.21,369.59 164.5,376.5C 163.5,376.5 162.5,376.5 161.5,376.5C 158.713,369.493 155.713,362.493 152.5,355.5 Z"/></g>
<g><path style="opacity:0.961" fill="#8d61ed" d="M 155.5,355.5 C 156.5,355.5 157.5,355.5 158.5,355.5C 159.252,359.263 160.919,362.596 163.5,365.5C 162.164,367.375 162.664,368.708 165,369.5C 166.136,371.743 166.97,374.076 167.5,376.5C 166.5,376.5 165.5,376.5 164.5,376.5C 161.21,369.59 158.21,362.59 155.5,355.5 Z"/></g>
<g><path style="opacity:0.958" fill="#8667ec" d="M 161.5,355.5 C 163.5,355.5 165.5,355.5 167.5,355.5C 170.927,362.509 173.927,369.509 176.5,376.5C 174.5,376.5 172.5,376.5 170.5,376.5C 167.758,369.354 164.758,362.354 161.5,355.5 Z"/></g>
<g><path style="opacity:0.961" fill="#816deb" d="M 167.5,355.5 C 169.5,355.5 171.5,355.5 173.5,355.5C 173.75,357.674 174.75,359.341 176.5,360.5C 176.94,363.38 177.94,366.046 179.5,368.5C 180.5,371.167 181.5,373.833 182.5,376.5C 180.5,376.5 178.5,376.5 176.5,376.5C 173.927,369.509 170.927,362.509 167.5,355.5 Z"/></g>
<g><path style="opacity:0.842" fill="#7d71eb" d="M 173.5,355.5 C 174.167,355.5 174.833,355.5 175.5,355.5C 175.629,357.216 175.962,358.883 176.5,360.5C 174.75,359.341 173.75,357.674 173.5,355.5 Z"/></g>
<g><path style="opacity:0.963" fill="#7a73ea" d="M 175.5,355.5 C 177.167,355.5 178.833,355.5 180.5,355.5C 182.924,362.78 185.924,369.78 189.5,376.5C 187.5,376.5 185.5,376.5 183.5,376.5C 183.206,373.246 181.873,370.579 179.5,368.5C 177.94,366.046 176.94,363.38 176.5,360.5C 175.962,358.883 175.629,357.216 175.5,355.5 Z"/></g>
<g><path style="opacity:0.967" fill="#7479e9" d="M 180.5,355.5 C 182.5,355.5 184.5,355.5 186.5,355.5C 189.773,362.38 192.773,369.38 195.5,376.5C 193.5,376.5 191.5,376.5 189.5,376.5C 185.924,369.78 182.924,362.78 180.5,355.5 Z"/></g>
<g><path style="opacity:0.959" fill="#6d7fe8" d="M 186.5,355.5 C 189.167,355.5 191.833,355.5 194.5,355.5C 196.882,362.6 199.549,369.6 202.5,376.5C 200.167,376.5 197.833,376.5 195.5,376.5C 192.773,369.38 189.773,362.38 186.5,355.5 Z"/></g>
<g><path style="opacity:0.96" fill="#6587e7" d="M 196.5,355.5 C 198.167,355.5 199.833,355.5 201.5,355.5C 204.758,362.354 207.758,369.354 210.5,376.5C 208.5,376.5 206.5,376.5 204.5,376.5C 204.415,374.071 203.415,372.071 201.5,370.5C 201.833,369.833 202.167,369.167 202.5,368.5C 201.833,368.167 201.167,367.833 200.5,367.5C 201.841,365.166 201.174,363.499 198.5,362.5C 199.571,360.675 198.904,359.508 196.5,359C 197.684,357.855 197.684,356.688 196.5,355.5 Z"/></g>
<g><path style="opacity:0.96" fill="#608ce6" d="M 201.5,355.5 C 203.833,355.5 206.167,355.5 208.5,355.5C 210.409,362.907 213.075,369.907 216.5,376.5C 214.5,376.5 212.5,376.5 210.5,376.5C 207.758,369.354 204.758,362.354 201.5,355.5 Z"/></g>
<g><path style="opacity:0.959" fill="#5a91e5" d="M 208.5,355.5 C 210.5,355.5 212.5,355.5 214.5,355.5C 215.221,359.689 216.887,363.355 219.5,366.5C 219.166,369.491 220.166,371.824 222.5,373.5C 222.5,374.5 222.5,375.5 222.5,376.5C 220.5,376.5 218.5,376.5 216.5,376.5C 213.075,369.907 210.409,362.907 208.5,355.5 Z"/></g>
<g><path style="opacity:0.963" fill="#5694e4" d="M 214.5,355.5 C 214.833,355.5 215.167,355.5 215.5,355.5C 217.119,359.069 218.452,362.736 219.5,366.5C 216.887,363.355 215.221,359.689 214.5,355.5 Z"/></g>
<g><path style="opacity:0.961" fill="#5497e4" d="M 215.5,355.5 C 217.167,355.5 218.833,355.5 220.5,355.5C 223.677,362.343 226.677,369.343 229.5,376.5C 227.167,376.5 224.833,376.5 222.5,376.5C 222.5,375.5 222.5,374.5 222.5,373.5C 222.293,370.759 221.293,368.426 219.5,366.5C 218.452,362.736 217.119,359.069 215.5,355.5 Z"/></g>
<g><path style="opacity:0.937" fill="#4f9be3" d="M 220.5,355.5 C 221.833,355.5 223.167,355.5 224.5,355.5C 226.219,362.598 229.219,368.932 233.5,374.5C 232.817,376.176 231.483,376.843 229.5,376.5C 226.677,369.343 223.677,362.343 220.5,355.5 Z"/></g>
<g><path style="opacity:0.855" fill="#4c9ee2" d="M 224.5,355.5 C 225.833,355.5 227.167,355.5 228.5,355.5C 229.442,359.065 231.109,362.065 233.5,364.5C 233.5,367.833 233.5,371.167 233.5,374.5C 229.219,368.932 226.219,362.598 224.5,355.5 Z"/></g>
<g><path style="opacity:0.733" fill="#49a1e2" d="M 228.5,355.5 C 230.167,355.5 231.833,355.5 233.5,355.5C 233.5,358.5 233.5,361.5 233.5,364.5C 231.109,362.065 229.442,359.065 228.5,355.5 Z"/></g>
<g><path style="opacity:0.958" fill="#b73af4" d="M 115.5,358.5 C 118.734,364.185 121.401,370.185 123.5,376.5C 122.167,376.5 120.833,376.5 119.5,376.5C 117.644,374.01 116.31,371.344 115.5,368.5C 115.5,365.167 115.5,361.833 115.5,358.5 Z"/></g>
<g><path style="opacity:1" fill="#6983e7" d="M 194.5,355.5 C 195.167,355.5 195.833,355.5 196.5,355.5C 197.684,356.688 197.684,357.855 196.5,359C 198.904,359.508 199.571,360.675 198.5,362.5C 201.174,363.499 201.841,365.166 200.5,367.5C 201.167,367.833 201.833,368.167 202.5,368.5C 202.167,369.167 201.833,369.833 201.5,370.5C 203.415,372.071 204.415,374.071 204.5,376.5C 203.833,376.5 203.167,376.5 202.5,376.5C 199.549,369.6 196.882,362.6 194.5,355.5 Z"/></g>
<g><path style="opacity:0.991" fill="#8b64ed" d="M 158.5,355.5 C 159.5,355.5 160.5,355.5 161.5,355.5C 164.758,362.354 167.758,369.354 170.5,376.5C 169.5,376.5 168.5,376.5 167.5,376.5C 166.97,374.076 166.136,371.743 165,369.5C 162.664,368.708 162.164,367.375 163.5,365.5C 160.919,362.596 159.252,359.263 158.5,355.5 Z"/></g>
<g><path style="opacity:0.935" fill="#26c2dc" d="M 279.5,364.5 C 282.927,370.431 285.594,376.764 287.5,383.5C 284.345,379.199 281.678,374.532 279.5,369.5C 279.5,367.833 279.5,366.167 279.5,364.5 Z"/></g>
<g><path style="opacity:1" fill="#5694e4" d="M 219.5,366.5 C 221.293,368.426 222.293,370.759 222.5,373.5C 220.166,371.824 219.166,369.491 219.5,366.5 Z"/></g>
<g><path style="opacity:0.881" fill="#ba37f5" d="M 115.5,368.5 C 116.31,371.344 117.644,374.01 119.5,376.5C 118.167,376.5 116.833,376.5 115.5,376.5C 115.5,373.833 115.5,371.167 115.5,368.5 Z"/></g>
<g><path style="opacity:0.984" fill="#7d71eb" d="M 179.5,368.5 C 181.873,370.579 183.206,373.246 183.5,376.5C 183.167,376.5 182.833,376.5 182.5,376.5C 181.5,373.833 180.5,371.167 179.5,368.5 Z"/></g>
<g><path style="opacity:0.952" fill="#29bfdd" d="M 279.5,369.5 C 281.678,374.532 284.345,379.199 287.5,383.5C 287.196,384.15 286.863,384.817 286.5,385.5C 288.705,389.481 290.705,393.481 292.5,397.5C 291.167,399.5 289.833,401.5 288.5,403.5C 284.843,395.546 281.177,387.546 277.5,379.5C 278.294,376.198 278.96,372.865 279.5,369.5 Z"/></g>
<g><path style="opacity:1" fill="#20c8db" d="M 292.5,372.5 C 294.785,375.335 296.118,378.668 296.5,382.5C 293.821,379.784 292.488,376.45 292.5,372.5 Z"/></g>
<g><path style="opacity:0.943" fill="#2cbcdd" d="M 277.5,379.5 C 281.177,387.546 284.843,395.546 288.5,403.5C 288.167,404.5 287.5,405.167 286.5,405.5C 283.909,397.401 280.576,389.734 276.5,382.5C 276.557,381.391 276.89,380.391 277.5,379.5 Z"/></g>
<g><path style="opacity:0.963" fill="#2fb9de" d="M 276.5,382.5 C 280.576,389.734 283.909,397.401 286.5,405.5C 285.136,407.191 283.803,408.858 282.5,410.5C 280.05,402.935 277.05,395.601 273.5,388.5C 274.5,386.5 275.5,384.5 276.5,382.5 Z"/></g>
<g><path style="opacity:0.956" fill="#26c2dc" d="M 287.5,383.5 C 289.488,387.091 291.488,390.758 293.5,394.5C 293.443,395.609 293.11,396.609 292.5,397.5C 290.705,393.481 288.705,389.481 286.5,385.5C 286.863,384.817 287.196,384.15 287.5,383.5 Z"/></g>
<g><path style="opacity:0.963" fill="#32b6de" d="M 273.5,388.5 C 277.05,395.601 280.05,402.935 282.5,410.5C 282.5,411.167 282.167,411.5 281.5,411.5C 277.165,405.191 274.165,398.191 272.5,390.5C 272.328,389.508 272.662,388.842 273.5,388.5 Z"/></g>
<g><path style="opacity:0.948" fill="#36b3df" d="M 272.5,390.5 C 274.165,398.191 277.165,405.191 281.5,411.5C 280.055,413.063 278.389,414.396 276.5,415.5C 273.676,409 270.676,402.667 267.5,396.5C 268.701,394.091 270.367,392.091 272.5,390.5 Z"/></g>
<g><path style="opacity:0.945" fill="#39afdf" d="M 267.5,396.5 C 270.676,402.667 273.676,409 276.5,415.5C 275.833,416.833 274.833,417.833 273.5,418.5C 271.133,411.682 268.466,405.015 265.5,398.5C 265.833,397.5 266.5,396.833 267.5,396.5 Z"/></g>
<g><path style="opacity:0.955" fill="#3cade0" d="M 265.5,398.5 C 268.466,405.015 271.133,411.682 273.5,418.5C 272.395,419.6 271.062,420.267 269.5,420.5C 269.601,416.764 268.601,413.097 266.5,409.5C 267.609,407.786 266.942,407.119 264.5,407.5C 264.279,404.933 263.612,402.599 262.5,400.5C 263.29,399.599 264.29,398.932 265.5,398.5 Z"/></g>
<g><path style="opacity:0.956" fill="#3faae0" d="M 262.5,400.5 C 263.612,402.599 264.279,404.933 264.5,407.5C 266.942,407.119 267.609,407.786 266.5,409.5C 268.601,413.097 269.601,416.764 269.5,420.5C 269.158,421.338 268.492,421.672 267.5,421.5C 264.835,415.172 262.168,408.838 259.5,402.5C 260.29,401.599 261.29,400.932 262.5,400.5 Z"/></g>
<g><path style="opacity:0.952" fill="#43a7e1" d="M 259.5,402.5 C 262.168,408.838 264.835,415.172 267.5,421.5C 266.71,422.401 265.71,423.068 264.5,423.5C 262.07,416.984 259.403,410.65 256.5,404.5C 257.29,403.599 258.29,402.932 259.5,402.5 Z"/></g>
<g><path style="opacity:0.967" fill="#46a4e1" d="M 256.5,404.5 C 259.403,410.65 262.07,416.984 264.5,423.5C 263.609,424.11 262.609,424.443 261.5,424.5C 258.464,418.414 255.798,412.081 253.5,405.5C 254.391,404.89 255.391,404.557 256.5,404.5 Z"/></g>
<g><path style="opacity:0.939" fill="#49a1e2" d="M 253.5,405.5 C 255.798,412.081 258.464,418.414 261.5,424.5C 260.791,425.404 259.791,425.737 258.5,425.5C 255.988,419.144 253.322,412.811 250.5,406.5C 251.391,405.89 252.391,405.557 253.5,405.5 Z"/></g>
<g><path style="opacity:0.954" fill="#4c9ee2" d="M 250.5,406.5 C 253.322,412.811 255.988,419.144 258.5,425.5C 257.791,426.404 256.791,426.737 255.5,426.5C 251.936,420.497 248.936,414.163 246.5,407.5C 247.708,406.766 249.041,406.433 250.5,406.5 Z"/></g>
<g><path style="opacity:0.969" fill="#f104fe" d="M 57.5,407.5 C 60.2514,414.31 63.5847,421.31 67.5,428.5C 62.8333,428.5 58.1667,428.5 53.5,428.5C 53.5,421.5 53.5,414.5 53.5,407.5C 54.8333,407.5 56.1667,407.5 57.5,407.5 Z"/></g>
<g><path style="opacity:0.953" fill="#ee07fd" d="M 57.5,407.5 C 58.8333,407.5 60.1667,407.5 61.5,407.5C 64.5629,414.626 67.8962,421.626 71.5,428.5C 70.1667,428.5 68.8333,428.5 67.5,428.5C 63.5847,421.31 60.2514,414.31 57.5,407.5 Z"/></g>
<g><path style="opacity:0.924" fill="#eb0afd" d="M 61.5,407.5 C 64.5,407.5 67.5,407.5 70.5,407.5C 72.9888,414.972 75.6554,422.306 78.5,429.5C 76.0504,429.702 73.717,429.369 71.5,428.5C 67.8962,421.626 64.5629,414.626 61.5,407.5 Z"/></g>
<g><path style="opacity:0.914" fill="#e80dfc" d="M 70.5,407.5 C 71.1667,407.5 71.8333,407.5 72.5,407.5C 75.4911,414.799 78.4911,422.133 81.5,429.5C 80.5,429.5 79.5,429.5 78.5,429.5C 75.6554,422.306 72.9888,414.972 70.5,407.5 Z"/></g>
<g><path style="opacity:0.916" fill="#e510fc" d="M 72.5,407.5 C 75.1667,407.5 77.8333,407.5 80.5,407.5C 83.4916,414.755 86.4916,422.089 89.5,429.5C 86.8333,429.5 84.1667,429.5 81.5,429.5C 78.4911,422.133 75.4911,414.799 72.5,407.5 Z"/></g>
<g><path style="opacity:0.931" fill="#e113fb" d="M 80.5,407.5 C 81.5,407.5 82.5,407.5 83.5,407.5C 86.1054,414.305 89.1054,420.971 92.5,427.5C 92.1373,428.183 91.8039,428.85 91.5,429.5C 90.8333,429.5 90.1667,429.5 89.5,429.5C 86.4916,422.089 83.4916,414.755 80.5,407.5 Z"/></g>
<g><path style="opacity:0.908" fill="#dd17fa" d="M 83.5,407.5 C 86.1667,407.5 88.8333,407.5 91.5,407.5C 95.341,414.521 98.6744,421.855 101.5,429.5C 98.1667,429.5 94.8333,429.5 91.5,429.5C 91.8039,428.85 92.1373,428.183 92.5,427.5C 89.1054,420.971 86.1054,414.305 83.5,407.5 Z"/></g>
<g><path style="opacity:0.895" fill="#d71cf9" d="M 91.5,407.5 C 94.8333,407.5 98.1667,407.5 101.5,407.5C 101.435,410.846 102.768,413.346 105.5,415C 104.921,416.908 104.921,418.575 105.5,420C 106.833,421.667 108.167,423.333 109.5,425C 108.272,426.49 108.272,427.99 109.5,429.5C 106.833,429.5 104.167,429.5 101.5,429.5C 98.6744,421.855 95.341,414.521 91.5,407.5 Z"/></g>
<g><path style="opacity:0.919" fill="#d122f8" d="M 101.5,407.5 C 103.833,407.5 106.167,407.5 108.5,407.5C 111.5,414.833 114.5,422.167 117.5,429.5C 114.833,429.5 112.167,429.5 109.5,429.5C 108.272,427.99 108.272,426.49 109.5,425C 108.167,423.333 106.833,421.667 105.5,420C 104.921,418.575 104.921,416.908 105.5,415C 102.768,413.346 101.435,410.846 101.5,407.5 Z"/></g>
<g><path style="opacity:0.917" fill="#cb28f7" d="M 108.5,407.5 C 111.167,407.5 113.833,407.5 116.5,407.5C 119.699,415.167 122.699,422.501 125.5,429.5C 122.833,429.5 120.167,429.5 117.5,429.5C 114.5,422.167 111.5,414.833 108.5,407.5 Z"/></g>
<g><path style="opacity:0.917" fill="#c42ef6" d="M 116.5,407.5 C 118.833,407.5 121.167,407.5 123.5,407.5C 127.342,414.524 130.676,421.857 133.5,429.5C 130.833,429.5 128.167,429.5 125.5,429.5C 122.699,422.501 119.699,415.167 116.5,407.5 Z"/></g>
<g><path style="opacity:0.917" fill="#be34f5" d="M 123.5,407.5 C 126.167,407.5 128.833,407.5 131.5,407.5C 133.734,415.216 136.734,422.549 140.5,429.5C 138.167,429.5 135.833,429.5 133.5,429.5C 130.676,421.857 127.342,414.524 123.5,407.5 Z"/></g>
<g><path style="opacity:0.94" fill="#ba37f5" d="M 131.5,407.5 C 132.167,407.5 132.833,407.5 133.5,407.5C 136.167,414.833 138.833,422.167 141.5,429.5C 141.167,429.5 140.833,429.5 140.5,429.5C 136.734,422.549 133.734,415.216 131.5,407.5 Z"/></g>
<g><path style="opacity:0.921" fill="#b73af4" d="M 133.5,407.5 C 134.833,407.5 136.167,407.5 137.5,407.5C 141.05,414.601 144.05,421.935 146.5,429.5C 144.833,429.5 143.167,429.5 141.5,429.5C 138.833,422.167 136.167,414.833 133.5,407.5 Z"/></g>
<g><path style="opacity:0.896" fill="#b33ef4" d="M 137.5,407.5 C 139.5,407.5 141.5,407.5 143.5,407.5C 144.336,410.296 145.669,413.63 147.5,417.5C 147.167,418.167 146.833,418.833 146.5,419.5C 149.497,422.162 150.831,425.495 150.5,429.5C 149.167,429.5 147.833,429.5 146.5,429.5C 144.05,421.935 141.05,414.601 137.5,407.5 Z"/></g>
<g><path style="opacity:0.912" fill="#aa46f2" d="M 147.5,407.5 C 149.167,407.5 150.833,407.5 152.5,407.5C 155.154,415.409 158.154,422.742 161.5,429.5C 159.833,429.5 158.167,429.5 156.5,429.5C 153.486,422.142 150.486,414.809 147.5,407.5 Z"/></g>
<g><path style="opacity:0.957" fill="#a749f2" d="M 152.5,407.5 C 152.833,407.5 153.167,407.5 153.5,407.5C 157.048,414.598 160.048,421.931 162.5,429.5C 162.167,429.5 161.833,429.5 161.5,429.5C 158.154,422.742 155.154,415.409 152.5,407.5 Z"/></g>
<g><path style="opacity:0.903" fill="#a44cf1" d="M 153.5,407.5 C 155.167,407.5 156.833,407.5 158.5,407.5C 161.5,414.833 164.5,422.167 167.5,429.5C 165.833,429.5 164.167,429.5 162.5,429.5C 160.048,421.931 157.048,414.598 153.5,407.5 Z"/></g>
<g><path style="opacity:0.93" fill="#a04ff0" d="M 158.5,407.5 C 159.5,407.5 160.5,407.5 161.5,407.5C 165.609,414.384 168.609,421.718 170.5,429.5C 169.5,429.5 168.5,429.5 167.5,429.5C 164.5,422.167 161.5,414.833 158.5,407.5 Z"/></g>
<g><path style="opacity:0.901" fill="#9d52f0" d="M 161.5,407.5 C 162.5,407.5 163.5,407.5 164.5,407.5C 168.041,414.586 171.041,421.919 173.5,429.5C 172.5,429.5 171.5,429.5 170.5,429.5C 168.609,421.718 165.609,414.384 161.5,407.5 Z"/></g>
<g><path style="opacity:0.918" fill="#9a55ef" d="M 164.5,407.5 C 165.833,407.5 167.167,407.5 168.5,407.5C 171.971,414.724 174.971,421.724 177.5,428.5C 176.432,429.434 175.099,429.768 173.5,429.5C 171.041,421.919 168.041,414.586 164.5,407.5 Z"/></g>
<g><path style="opacity:0.958" fill="#9758ef" d="M 168.5,407.5 C 169.5,407.5 170.5,407.5 171.5,407.5C 175.064,414.169 178.064,421.169 180.5,428.5C 179.5,428.5 178.5,428.5 177.5,428.5C 174.971,421.724 171.971,414.724 168.5,407.5 Z"/></g>
<g><path style="opacity:0.942" fill="#935bee" d="M 171.5,407.5 C 173.167,407.5 174.833,407.5 176.5,407.5C 176.389,408.117 176.056,408.617 175.5,409C 178.979,415.266 181.979,421.766 184.5,428.5C 183.167,428.5 181.833,428.5 180.5,428.5C 178.064,421.169 175.064,414.169 171.5,407.5 Z"/></g>
<g><path style="opacity:0.966" fill="#905eee" d="M 176.5,407.5 C 177.167,407.5 177.833,407.5 178.5,407.5C 181.225,414.616 184.225,421.616 187.5,428.5C 186.5,428.5 185.5,428.5 184.5,428.5C 181.979,421.766 178.979,415.266 175.5,409C 176.056,408.617 176.389,408.117 176.5,407.5 Z"/></g>
<g><path style="opacity:0.955" fill="#8d61ed" d="M 178.5,407.5 C 179.5,407.5 180.5,407.5 181.5,407.5C 181.389,408.117 181.056,408.617 180.5,409C 185.331,414.683 188.664,421.183 190.5,428.5C 189.5,428.5 188.5,428.5 187.5,428.5C 184.225,421.616 181.225,414.616 178.5,407.5 Z"/></g>
<g><path style="opacity:0.966" fill="#8a64ed" d="M 181.5,407.5 C 182.5,407.5 183.5,407.5 184.5,407.5C 187.239,414.642 190.239,421.642 193.5,428.5C 192.5,428.5 191.5,428.5 190.5,428.5C 188.664,421.183 185.331,414.683 180.5,409C 181.056,408.617 181.389,408.117 181.5,407.5 Z"/></g>
<g><path style="opacity:0.955" fill="#8668ec" d="M 184.5,407.5 C 186.5,407.5 188.5,407.5 190.5,407.5C 192.864,414.57 195.53,421.57 198.5,428.5C 196.833,428.5 195.167,428.5 193.5,428.5C 190.239,421.642 187.239,414.642 184.5,407.5 Z"/></g>
<g><path style="opacity:0.931" fill="#806deb" d="M 190.5,407.5 C 192.5,407.5 194.5,407.5 196.5,407.5C 196.427,409.027 197.094,410.027 198.5,410.5C 199.087,415.001 200.754,419.001 203.5,422.5C 203.878,424.921 204.545,427.254 205.5,429.5C 203.139,429.326 200.806,428.993 198.5,428.5C 195.53,421.57 192.864,414.57 190.5,407.5 Z"/></g>
<g><path style="opacity:0.921" fill="#7974ea" d="M 196.5,407.5 C 198.833,407.5 201.167,407.5 203.5,407.5C 205.91,414.906 209.243,422.24 213.5,429.5C 211.167,429.5 208.833,429.5 206.5,429.5C 206.293,426.759 205.293,424.426 203.5,422.5C 202.589,418.076 200.922,414.076 198.5,410.5C 197.094,410.027 196.427,409.027 196.5,407.5 Z"/></g>
<g><path style="opacity:0.916" fill="#7379e9" d="M 203.5,407.5 C 205.833,407.5 208.167,407.5 210.5,407.5C 213.386,415.171 216.053,422.504 218.5,429.5C 216.833,429.5 215.167,429.5 213.5,429.5C 209.243,422.24 205.91,414.906 203.5,407.5 Z"/></g>
<g><path style="opacity:0.907" fill="#6d7fe8" d="M 210.5,407.5 C 212.833,407.5 215.167,407.5 217.5,407.5C 217.389,408.117 217.056,408.617 216.5,409C 219.899,415.633 222.899,422.467 225.5,429.5C 223.167,429.5 220.833,429.5 218.5,429.5C 216.053,422.504 213.386,415.171 210.5,407.5 Z"/></g>
<g><path style="opacity:0.931" fill="#6587e6" d="M 220.5,407.5 C 221.833,407.5 223.167,407.5 224.5,407.5C 227.196,414.946 230.196,422.279 233.5,429.5C 231.833,429.5 230.167,429.5 228.5,429.5C 227.047,428.175 227.381,427.342 229.5,427C 228.299,426.097 227.465,424.931 227,423.5C 223.801,424.236 223.635,423.403 226.5,421C 225.299,420.097 224.465,418.931 224,417.5C 223.667,418.167 223.333,418.833 223,419.5C 221.981,417.731 221.814,416.064 222.5,414.5C 221.833,413.5 221.167,412.5 220.5,411.5C 221.363,410.274 221.363,408.94 220.5,407.5 Z"/></g>
<g><path style="opacity:0.92" fill="#608ce6" d="M 224.5,407.5 C 226.833,407.5 229.167,407.5 231.5,407.5C 231.054,410.01 231.72,412.01 233.5,413.5C 233.733,416.542 234.733,419.208 236.5,421.5C 238.606,423.719 239.606,426.385 239.5,429.5C 237.5,429.5 235.5,429.5 233.5,429.5C 230.196,422.279 227.196,414.946 224.5,407.5 Z"/></g>
<g><path style="opacity:0.924" fill="#5a91e5" d="M 231.5,407.5 C 233.5,407.5 235.5,407.5 237.5,407.5C 239.771,414.644 242.437,421.644 245.5,428.5C 243.5,428.833 241.5,429.167 239.5,429.5C 239.606,426.385 238.606,423.719 236.5,421.5C 236.267,418.458 235.267,415.792 233.5,413.5C 231.72,412.01 231.054,410.01 231.5,407.5 Z"/></g>
<g><path style="opacity:0.949" fill="#5694e4" d="M 237.5,407.5 C 237.833,407.5 238.167,407.5 238.5,407.5C 241.306,414.587 244.306,421.587 247.5,428.5C 246.833,428.5 246.167,428.5 245.5,428.5C 242.437,421.644 239.771,414.644 237.5,407.5 Z"/></g>
<g><path style="opacity:0.933" fill="#5397e4" d="M 238.5,407.5 C 240.167,407.5 241.833,407.5 243.5,407.5C 246.182,414.192 248.849,420.859 251.5,427.5C 250.432,428.434 249.099,428.768 247.5,428.5C 244.306,421.587 241.306,414.587 238.5,407.5 Z"/></g>
<g><path style="opacity:0.945" fill="#4f9be3" d="M 243.5,407.5 C 244.5,407.5 245.5,407.5 246.5,407.5C 248.936,414.163 251.936,420.497 255.5,426.5C 254.432,427.434 253.099,427.768 251.5,427.5C 248.849,420.859 246.182,414.192 243.5,407.5 Z"/></g>
<g><path style="opacity:0.96" fill="#15d1d9" d="M 332.5,407.5 C 335.765,414.942 339.432,422.609 343.5,430.5C 341.646,434.221 339.313,437.554 336.5,440.5C 335.5,439.833 334.5,439.167 333.5,438.5C 333.5,438.167 333.5,437.833 333.5,437.5C 333.34,435.847 332.674,434.514 331.5,433.5C 329.323,434.504 328.989,433.838 330.5,431.5C 329.637,430.06 329.637,428.726 330.5,427.5C 329.452,426.452 328.452,425.452 327.5,424.5C 326.194,423.533 325.527,422.199 325.5,420.5C 327.595,415.973 329.928,411.639 332.5,407.5 Z"/></g>
<g><path style="opacity:1" fill="#7d71eb" d="M 198.5,410.5 C 200.922,414.076 202.589,418.076 203.5,422.5C 200.754,419.001 199.087,415.001 198.5,410.5 Z"/></g>
<g><path style="opacity:1" fill="#af42f3" d="M 143.5,407.5 C 144.833,407.5 146.167,407.5 147.5,407.5C 150.486,414.809 153.486,422.142 156.5,429.5C 154.5,429.5 152.5,429.5 150.5,429.5C 150.831,425.495 149.497,422.162 146.5,419.5C 146.833,418.833 147.167,418.167 147.5,417.5C 145.669,413.63 144.336,410.296 143.5,407.5 Z"/></g>
<g><path style="opacity:1" fill="#5c8ee5" d="M 233.5,413.5 C 235.267,415.792 236.267,418.458 236.5,421.5C 234.733,419.208 233.733,416.542 233.5,413.5 Z"/></g>
<g><path style="opacity:0.933" fill="#fefffe" d="M 590.5,420.5 C 596.645,419.51 602.978,419.177 609.5,419.5C 616.201,441.967 623.368,464.301 631,486.5C 638.274,464.179 645.441,441.846 652.5,419.5C 657.833,419.5 663.167,419.5 668.5,419.5C 675.156,441.969 682.323,464.302 690,486.5C 697,464.833 704,443.167 711,421.5C 717.111,420.191 723.278,420.191 729.5,421.5C 718.704,451.721 708.204,482.054 698,512.5C 692.667,513.833 687.333,513.833 682,512.5C 674.864,491.425 667.531,470.425 660,449.5C 652.525,470.757 645.359,492.091 638.5,513.5C 633.125,513.828 627.792,513.495 622.5,512.5C 611.999,481.66 601.333,450.994 590.5,420.5 Z"/></g>
<g><path style="opacity:0.925" fill="#fefffe" d="M 806.5,419.5 C 812.167,419.5 817.833,419.5 823.5,419.5C 836.54,450.584 849.873,481.584 863.5,512.5C 857.278,513.809 851.111,513.809 845,512.5C 842.069,505.874 839.236,499.208 836.5,492.5C 821.833,491.167 807.167,491.167 792.5,492.5C 789.399,499.309 786.399,506.142 783.5,513C 777.472,513.83 771.472,513.664 765.5,512.5C 779.368,481.554 793.034,450.554 806.5,419.5 Z M 813.5,441.5 C 814.75,441.577 815.583,442.244 816,443.5C 820.309,454.099 824.809,464.599 829.5,475C 819.483,475.832 809.483,475.666 799.5,474.5C 804.455,463.594 809.121,452.594 813.5,441.5 Z"/></g>
<g><path style="opacity:0.949" fill="#1ccbdb" d="M 325.5,420.5 C 325.527,422.199 326.194,423.533 327.5,424.5C 326.624,424.369 325.957,424.702 325.5,425.5C 326.167,425.833 326.833,426.167 327.5,426.5C 327.167,427.167 326.833,427.833 326.5,428.5C 327.841,428.877 329.174,429.877 330.5,431.5C 328.989,433.838 329.323,434.504 331.5,433.5C 331.714,435.144 331.38,436.644 330.5,438C 331.577,438.47 332.577,438.303 333.5,437.5C 333.5,437.833 333.5,438.167 333.5,438.5C 332.402,439.397 332.402,440.23 333.5,441C 331.397,441.853 331.397,443.02 333.5,444.5C 332.219,447.447 330.219,449.781 327.5,451.5C 326.111,448.602 324.944,445.602 324,442.5C 323.617,443.056 323.117,443.389 322.5,443.5C 322.5,442.833 322.5,442.167 322.5,441.5C 322.938,441.565 323.272,441.399 323.5,441C 321.421,437.676 319.754,434.176 318.5,430.5C 320.846,427.129 323.179,423.796 325.5,420.5 Z"/></g>
<g><path style="opacity:0.93" fill="#fefffe" d="M 917.5,420.5 C 923.5,420.5 929.5,420.5 935.5,420.5C 935.5,433.167 935.5,445.833 935.5,458.5C 949.833,458.5 964.167,458.5 978.5,458.5C 978.5,445.833 978.5,433.167 978.5,420.5C 984.167,420.5 989.833,420.5 995.5,420.5C 995.5,451.5 995.5,482.5 995.5,513.5C 989.833,513.5 984.167,513.5 978.5,513.5C 978.5,500.5 978.5,487.5 978.5,474.5C 964.167,474.5 949.833,474.5 935.5,474.5C 935.5,487.5 935.5,500.5 935.5,513.5C 929.5,513.5 923.5,513.5 917.5,513.5C 917.5,482.5 917.5,451.5 917.5,420.5 Z"/></g>
<g><path style="opacity:0.932" fill="#fefffe" d="M 1048.5,421.5 C 1055.34,420.181 1062.34,420.181 1069.5,421.5C 1077.42,434.337 1085.58,447.003 1094,459.5C 1102.42,447.003 1110.58,434.337 1118.5,421.5C 1125.48,420.336 1132.48,420.169 1139.5,421C 1127.21,439.081 1115.04,457.247 1103,475.5C 1102.5,488.162 1102.33,500.829 1102.5,513.5C 1096.83,513.5 1091.17,513.5 1085.5,513.5C 1085.67,501.162 1085.5,488.829 1085,476.5C 1072.81,458.101 1060.64,439.768 1048.5,421.5 Z"/></g>
<g><path style="opacity:0.948" fill="#fefffe" d="M 1191.5,420.5 C 1197.17,420.5 1202.83,420.5 1208.5,420.5C 1208.06,441.212 1208.56,461.879 1210,482.5C 1215.2,495.352 1224.7,500.186 1238.5,497C 1246,494.833 1250.83,490 1253,482.5C 1254.43,461.873 1254.93,441.207 1254.5,420.5C 1260.17,420.5 1265.83,420.5 1271.5,420.5C 1271.67,440.503 1271.5,460.503 1271,480.5C 1267.71,503.287 1254.54,514.287 1231.5,513.5C 1209.37,514.528 1196.2,504.195 1192,482.5C 1191.5,461.836 1191.33,441.169 1191.5,420.5 Z"/></g>
<g><path style="opacity:0.895" fill="#7d71eb" d="M 203.5,422.5 C 205.293,424.426 206.293,426.759 206.5,429.5C 206.167,429.5 205.833,429.5 205.5,429.5C 204.545,427.254 203.878,424.921 203.5,422.5 Z"/></g>
<g><path style="opacity:0.866" fill="#6883e7" d="M 217.5,407.5 C 218.5,407.5 219.5,407.5 220.5,407.5C 221.363,408.94 221.363,410.274 220.5,411.5C 221.167,412.5 221.833,413.5 222.5,414.5C 221.814,416.064 221.981,417.731 223,419.5C 223.333,418.833 223.667,418.167 224,417.5C 224.465,418.931 225.299,420.097 226.5,421C 223.635,423.403 223.801,424.236 227,423.5C 227.465,424.931 228.299,426.097 229.5,427C 227.381,427.342 227.047,428.175 228.5,429.5C 227.5,429.5 226.5,429.5 225.5,429.5C 222.899,422.467 219.899,415.633 216.5,409C 217.056,408.617 217.389,408.117 217.5,407.5 Z"/></g>
<g><path style="opacity:1" fill="#19ceda" d="M 327.5,424.5 C 328.452,425.452 329.452,426.452 330.5,427.5C 329.637,428.726 329.637,430.06 330.5,431.5C 329.174,429.877 327.841,428.877 326.5,428.5C 326.833,427.833 327.167,427.167 327.5,426.5C 326.833,426.167 326.167,425.833 325.5,425.5C 325.957,424.702 326.624,424.369 327.5,424.5 Z"/></g>
<g><path style="opacity:0.926" fill="#20c8db" d="M 318.5,430.5 C 319.754,434.176 321.421,437.676 323.5,441C 323.272,441.399 322.938,441.565 322.5,441.5C 320.595,438.696 318.929,435.696 317.5,432.5C 317.328,431.508 317.662,430.842 318.5,430.5 Z"/></g>
<g><path style="opacity:0.963" fill="#22c5dc" d="M 317.5,432.5 C 318.929,435.696 320.595,438.696 322.5,441.5C 322.5,442.167 322.5,442.833 322.5,443.5C 323.561,446.622 324.895,449.622 326.5,452.5C 324.833,454.833 322.833,456.833 320.5,458.5C 317.556,451.61 314.889,444.61 312.5,437.5C 313.833,435.5 315.5,433.833 317.5,432.5 Z"/></g>
<g><path style="opacity:1" fill="#19ceda" d="M 331.5,433.5 C 332.674,434.514 333.34,435.847 333.5,437.5C 332.577,438.303 331.577,438.47 330.5,438C 331.38,436.644 331.714,435.144 331.5,433.5 Z"/></g>
<g><path style="opacity:0.937" fill="#26c2dc" d="M 312.5,437.5 C 314.889,444.61 317.556,451.61 320.5,458.5C 320.5,459.167 320.167,459.5 319.5,459.5C 316.502,452.836 313.502,446.17 310.5,439.5C 310.833,438.5 311.5,437.833 312.5,437.5 Z"/></g>
<g><path style="opacity:0.936" fill="#29bfdd" d="M 310.5,439.5 C 313.502,446.17 316.502,452.836 319.5,459.5C 318.415,461.587 316.749,462.92 314.5,463.5C 311.686,457.046 308.686,450.713 305.5,444.5C 306.833,442.5 308.5,440.833 310.5,439.5 Z"/></g>
<g><path style="opacity:1" fill="#19ceda" d="M 333.5,438.5 C 334.5,439.167 335.5,439.833 336.5,440.5C 336.262,442.404 335.262,443.738 333.5,444.5C 331.397,443.02 331.397,441.853 333.5,441C 332.402,440.23 332.402,439.397 333.5,438.5 Z"/></g>
<g><path style="opacity:0.969" fill="#20c8db" d="M 327.5,451.5 C 327.5,452.167 327.167,452.5 326.5,452.5C 324.895,449.622 323.561,446.622 322.5,443.5C 323.117,443.389 323.617,443.056 324,442.5C 324.944,445.602 326.111,448.602 327.5,451.5 Z"/></g>
<g><path style="opacity:0.96" fill="#2cbcdd" d="M 305.5,444.5 C 308.686,450.713 311.686,457.046 314.5,463.5C 314.167,464.5 313.5,465.167 312.5,465.5C 310.297,458.636 307.631,451.97 304.5,445.5C 304.5,444.833 304.833,444.5 305.5,444.5 Z"/></g>
<g><path style="opacity:0.958" fill="#2fb9de" d="M 304.5,445.5 C 307.631,451.97 310.297,458.636 312.5,465.5C 311.564,466.974 310.23,467.974 308.5,468.5C 305.276,462.181 302.609,455.515 300.5,448.5C 301.833,447.5 303.167,446.5 304.5,445.5 Z"/></g>
<g><path style="opacity:0.941" fill="#32b6de" d="M 300.5,448.5 C 302.609,455.515 305.276,462.181 308.5,468.5C 308.158,469.338 307.492,469.672 306.5,469.5C 303.493,463.465 300.493,457.465 297.5,451.5C 298.167,450.167 299.167,449.167 300.5,448.5 Z"/></g>
<g><path style="opacity:0.951" fill="#36b3df" d="M 297.5,451.5 C 300.493,457.465 303.493,463.465 306.5,469.5C 305.055,471.063 303.389,472.396 301.5,473.5C 298.717,466.94 295.717,460.607 292.5,454.5C 293.899,453.11 295.566,452.11 297.5,451.5 Z"/></g>
<g><path style="opacity:0.964" fill="#39afdf" d="M 292.5,454.5 C 295.717,460.607 298.717,466.94 301.5,473.5C 300.609,474.11 299.609,474.443 298.5,474.5C 296.109,468.051 293.442,461.718 290.5,455.5C 291.167,455.167 291.833,454.833 292.5,454.5 Z"/></g>
<g><path style="opacity:0.947" fill="#40aae0" d="M 287.5,457.5 C 289.473,460.467 290.639,463.8 291,467.5C 292.067,468.943 293.234,470.276 294.5,471.5C 293.377,473.482 293.377,475.482 294.5,477.5C 293.833,477.833 293.167,478.167 292.5,478.5C 289.539,472.033 286.873,465.366 284.5,458.5C 285.391,457.89 286.391,457.557 287.5,457.5 Z"/></g>
<g><path style="opacity:0.945" fill="#42a7e1" d="M 284.5,458.5 C 286.873,465.366 289.539,472.033 292.5,478.5C 291.391,478.557 290.391,478.89 289.5,479.5C 286.833,473.167 284.167,466.833 281.5,460.5C 282.29,459.599 283.29,458.932 284.5,458.5 Z"/></g>
<g><path style="opacity:0.95" fill="#46a4e1" d="M 281.5,460.5 C 284.167,466.833 286.833,473.167 289.5,479.5C 288.167,480.167 286.833,480.833 285.5,481.5C 283.372,474.584 280.706,467.917 277.5,461.5C 278.833,461.167 280.167,460.833 281.5,460.5 Z"/></g>
<g><path style="opacity:0.962" fill="#49a1e2" d="M 277.5,461.5 C 280.706,467.917 283.372,474.584 285.5,481.5C 284.833,481.5 284.167,481.5 283.5,481.5C 280.452,475.364 277.785,469.03 275.5,462.5C 276.167,462.167 276.833,461.833 277.5,461.5 Z"/></g>
<g><path style="opacity:0.948" fill="#4c9ee2" d="M 275.5,462.5 C 277.785,469.03 280.452,475.364 283.5,481.5C 282.329,482.345 280.995,483.011 279.5,483.5C 276.809,476.793 274.142,470.127 271.5,463.5C 272.833,463.167 274.167,462.833 275.5,462.5 Z"/></g>
<g><path style="opacity:0.939" fill="#509be3" d="M 271.5,463.5 C 274.142,470.127 276.809,476.793 279.5,483.5C 278.391,483.557 277.391,483.89 276.5,484.5C 273.633,477.897 270.967,471.23 268.5,464.5C 269.391,463.89 270.391,463.557 271.5,463.5 Z"/></g>
<g><path style="opacity:0.948" fill="#5397e4" d="M 268.5,464.5 C 270.967,471.23 273.633,477.897 276.5,484.5C 274.5,484.833 272.5,485.167 270.5,485.5C 270.167,484.167 269.833,482.833 269.5,481.5C 268.475,475.752 266.475,470.419 263.5,465.5C 265.117,464.962 266.784,464.629 268.5,464.5 Z"/></g>
<g><path style="opacity:0.948" fill="#5a91e5" d="M 262.5,465.5 C 264.299,471.095 266.632,476.428 269.5,481.5C 269.833,482.833 270.167,484.167 270.5,485.5C 268.565,486.15 266.565,486.483 264.5,486.5C 261.673,480.087 259.34,473.421 257.5,466.5C 259.117,465.962 260.784,465.629 262.5,465.5 Z"/></g>
<g><path style="opacity:0.981" fill="#5694e4" d="M 262.5,465.5 C 262.833,465.5 263.167,465.5 263.5,465.5C 266.475,470.419 268.475,475.752 269.5,481.5C 266.632,476.428 264.299,471.095 262.5,465.5 Z"/></g>
<g><path style="opacity:0.973" fill="#3cade0" d="M 290.5,455.5 C 293.442,461.718 296.109,468.051 298.5,474.5C 297.564,475.974 296.23,476.974 294.5,477.5C 293.377,475.482 293.377,473.482 294.5,471.5C 293.234,470.276 292.067,468.943 291,467.5C 290.639,463.8 289.473,460.467 287.5,457.5C 288.29,456.599 289.29,455.932 290.5,455.5 Z"/></g>
<g><path style="opacity:0.938" fill="#5f8ce6" d="M 257.5,466.5 C 259.34,473.421 261.673,480.087 264.5,486.5C 262.565,487.15 260.565,487.483 258.5,487.5C 256.04,480.794 253.373,474.128 250.5,467.5C 252.717,466.631 255.05,466.298 257.5,466.5 Z"/></g>
<g><path style="opacity:0.953" fill="#7379e9" d="M 236.5,467.5 C 238.914,474.739 241.914,481.739 245.5,488.5C 243.435,488.517 241.435,488.85 239.5,489.5C 236.314,482.617 233.314,475.617 230.5,468.5C 232.565,468.483 234.565,468.15 236.5,467.5 Z"/></g>
<g><path style="opacity:0.938" fill="#6d7fe8" d="M 236.5,467.5 C 238.5,467.5 240.5,467.5 242.5,467.5C 244.672,473.178 247.339,478.511 250.5,483.5C 250.366,485.292 250.699,486.958 251.5,488.5C 249.5,488.5 247.5,488.5 245.5,488.5C 241.914,481.739 238.914,474.739 236.5,467.5 Z"/></g>
<g><path style="opacity:0.954" fill="#6586e6" d="M 245.5,467.5 C 247.167,467.5 248.833,467.5 250.5,467.5C 253.373,474.128 256.04,480.794 258.5,487.5C 256.435,487.517 254.435,487.85 252.5,488.5C 254.255,485.91 253.588,484.243 250.5,483.5C 251.111,481.286 251.111,479.286 250.5,477.5C 248.615,476.803 248.282,475.803 249.5,474.5C 247.609,473.689 246.276,472.356 245.5,470.5C 246.167,470.167 246.833,469.833 247.5,469.5C 246.757,468.818 246.091,468.151 245.5,467.5 Z"/></g>
<g><path style="opacity:0.952" fill="#b43df4" d="M 166.5,468.5 C 169.773,475.38 172.773,482.38 175.5,489.5C 174.833,489.5 174.167,489.5 173.5,489.5C 170.798,483.436 168.131,477.436 165.5,471.5C 165.263,470.209 165.596,469.209 166.5,468.5 Z"/></g>
<g><path style="opacity:0.936" fill="#b040f3" d="M 166.5,468.5 C 168.5,468.5 170.5,468.5 172.5,468.5C 174.682,474.368 177.015,480.202 179.5,486C 177.805,487.046 177.472,488.213 178.5,489.5C 177.5,489.5 176.5,489.5 175.5,489.5C 172.773,482.38 169.773,475.38 166.5,468.5 Z"/></g>
<g><path style="opacity:0.968" fill="#ad43f2" d="M 172.5,468.5 C 172.833,468.5 173.167,468.5 173.5,468.5C 177.075,475.215 180.075,482.215 182.5,489.5C 181.167,489.5 179.833,489.5 178.5,489.5C 177.472,488.213 177.805,487.046 179.5,486C 177.015,480.202 174.682,474.368 172.5,468.5 Z"/></g>
<g><path style="opacity:0.957" fill="#aa46f2" d="M 173.5,468.5 C 175.167,468.5 176.833,468.5 178.5,468.5C 181.703,475.452 184.703,482.452 187.5,489.5C 185.833,489.5 184.167,489.5 182.5,489.5C 180.075,482.215 177.075,475.215 173.5,468.5 Z"/></g>
<g><path style="opacity:0.956" fill="#a749f2" d="M 178.5,468.5 C 179.167,468.5 179.833,468.5 180.5,468.5C 183.695,475.418 186.695,482.418 189.5,489.5C 188.833,489.5 188.167,489.5 187.5,489.5C 184.703,482.452 181.703,475.452 178.5,468.5 Z"/></g>
<g><path style="opacity:0.956" fill="#a44cf1" d="M 180.5,468.5 C 182.167,468.5 183.833,468.5 185.5,468.5C 188.157,475.466 190.824,482.466 193.5,489.5C 192.167,489.5 190.833,489.5 189.5,489.5C 186.695,482.418 183.695,475.418 180.5,468.5 Z"/></g>
<g><path style="opacity:0.951" fill="#a04ff0" d="M 185.5,468.5 C 186.833,468.5 188.167,468.5 189.5,468.5C 189.389,469.117 189.056,469.617 188.5,470C 191.878,476.386 194.878,482.886 197.5,489.5C 196.167,489.5 194.833,489.5 193.5,489.5C 190.824,482.466 188.157,475.466 185.5,468.5 Z"/></g>
<g><path style="opacity:0.964" fill="#9d52f0" d="M 189.5,468.5 C 190.167,468.5 190.833,468.5 191.5,468.5C 194.227,475.62 197.227,482.62 200.5,489.5C 199.5,489.5 198.5,489.5 197.5,489.5C 194.878,482.886 191.878,476.386 188.5,470C 189.056,469.617 189.389,469.117 189.5,468.5 Z"/></g>
<g><path style="opacity:0.957" fill="#9a55ef" d="M 191.5,468.5 C 192.833,468.5 194.167,468.5 195.5,468.5C 198.688,475.389 201.688,482.389 204.5,489.5C 203.167,489.5 201.833,489.5 200.5,489.5C 197.227,482.62 194.227,475.62 191.5,468.5 Z"/></g>
<g><path style="opacity:0.959" fill="#9758ef" d="M 195.5,468.5 C 196.5,468.5 197.5,468.5 198.5,468.5C 201.239,475.642 204.239,482.642 207.5,489.5C 206.5,489.5 205.5,489.5 204.5,489.5C 201.688,482.389 198.688,475.389 195.5,468.5 Z"/></g>
<g><path style="opacity:0.949" fill="#935bee" d="M 198.5,468.5 C 199.833,468.5 201.167,468.5 202.5,468.5C 205.012,475.688 208.012,482.688 211.5,489.5C 210.167,489.5 208.833,489.5 207.5,489.5C 204.239,482.642 201.239,475.642 198.5,468.5 Z"/></g>
<g><path style="opacity:0.962" fill="#905eee" d="M 202.5,468.5 C 203.167,468.5 203.833,468.5 204.5,468.5C 207.833,475.5 211.167,482.5 214.5,489.5C 213.5,489.5 212.5,489.5 211.5,489.5C 208.012,482.688 205.012,475.688 202.5,468.5 Z"/></g>
<g><path style="opacity:0.969" fill="#8d61ed" d="M 204.5,468.5 C 205.5,468.5 206.5,468.5 207.5,468.5C 208.684,469.688 208.684,470.855 207.5,472C 211.304,473.779 212.804,476.612 212,480.5C 214.086,483.403 215.919,486.403 217.5,489.5C 216.5,489.5 215.5,489.5 214.5,489.5C 211.167,482.5 207.833,475.5 204.5,468.5 Z"/></g>
<g><path style="opacity:0.95" fill="#8668ec" d="M 210.5,468.5 C 212.5,468.5 214.5,468.5 216.5,468.5C 219.743,475.328 222.743,482.328 225.5,489.5C 223.5,489.5 221.5,489.5 219.5,489.5C 217.086,482.261 214.086,475.261 210.5,468.5 Z"/></g>
<g><path style="opacity:0.949" fill="#806deb" d="M 216.5,468.5 C 218.833,468.5 221.167,468.5 223.5,468.5C 223.328,469.492 223.662,470.158 224.5,470.5C 225.314,474.116 226.648,477.449 228.5,480.5C 228.896,483.721 230.229,486.388 232.5,488.5C 232.5,488.833 232.5,489.167 232.5,489.5C 230.167,489.5 227.833,489.5 225.5,489.5C 222.743,482.328 219.743,475.328 216.5,468.5 Z"/></g>
<g><path style="opacity:0.952" fill="#7974ea" d="M 223.5,468.5 C 225.833,468.5 228.167,468.5 230.5,468.5C 233.314,475.617 236.314,482.617 239.5,489.5C 237.167,489.5 234.833,489.5 232.5,489.5C 232.5,489.167 232.5,488.833 232.5,488.5C 231.751,485.362 230.417,482.695 228.5,480.5C 228.248,476.673 226.915,473.34 224.5,470.5C 223.662,470.158 223.328,469.492 223.5,468.5 Z"/></g>
<g><path style="opacity:1" fill="#8b64ed" d="M 207.5,468.5 C 208.5,468.5 209.5,468.5 210.5,468.5C 214.086,475.261 217.086,482.261 219.5,489.5C 218.833,489.5 218.167,489.5 217.5,489.5C 215.919,486.403 214.086,483.403 212,480.5C 212.804,476.612 211.304,473.779 207.5,472C 208.684,470.855 208.684,469.688 207.5,468.5 Z"/></g>
<g><path style="opacity:1" fill="#7d71eb" d="M 224.5,470.5 C 226.915,473.34 228.248,476.673 228.5,480.5C 226.648,477.449 225.314,474.116 224.5,470.5 Z"/></g>
<g><path style="opacity:0.882" fill="#b73af4" d="M 165.5,471.5 C 168.131,477.436 170.798,483.436 173.5,489.5C 170.833,489.5 168.167,489.5 165.5,489.5C 165.5,483.5 165.5,477.5 165.5,471.5 Z"/></g>
<g><path style="opacity:1" fill="#6883e7" d="M 242.5,467.5 C 243.5,467.5 244.5,467.5 245.5,467.5C 246.091,468.151 246.757,468.818 247.5,469.5C 246.833,469.833 246.167,470.167 245.5,470.5C 246.276,472.356 247.609,473.689 249.5,474.5C 248.282,475.803 248.615,476.803 250.5,477.5C 251.111,479.286 251.111,481.286 250.5,483.5C 247.339,478.511 244.672,473.178 242.5,467.5 Z"/></g>
<g><path style="opacity:1" fill="#7d71eb" d="M 228.5,480.5 C 230.417,482.695 231.751,485.362 232.5,488.5C 230.229,486.388 228.896,483.721 228.5,480.5 Z"/></g>
<g><path style="opacity:1" fill="#6983e7" d="M 250.5,483.5 C 253.588,484.243 254.255,485.91 252.5,488.5C 252.167,488.5 251.833,488.5 251.5,488.5C 250.699,486.958 250.366,485.292 250.5,483.5 Z"/></g>
</svg>
